<?xml version="1.0" standalone="no"?>
<!DOCTYPE svg PUBLIC "-//W3C//DTD SVG 20010904//EN"
 "http://www.w3.org/TR/2001/REC-SVG-20010904/DTD/svg10.dtd">
<svg version="1.0" xmlns="http://www.w3.org/2000/svg"
 width="1536.000000pt" height="1024.000000pt" viewBox="0 0 1536.000000 1024.000000"
 preserveAspectRatio="xMidYMid meet">

<g transform="translate(0.000000,1024.000000) scale(0.100000,-0.100000)"
fill="#ea2e5b" stroke="none">
<path d="M6830 7584 c-183 -36 -376 -131 -595 -294 -116 -86 -415 -380 -535
-525 -226 -273 -310 -377 -571 -700 -335 -415 -495 -608 -603 -730 -122 -138
-280 -305 -288 -305 -4 0 17 46 48 103 206 383 424 923 505 1252 46 189 62
322 56 460 -7 142 -23 212 -77 320 -94 191 -260 319 -496 382 -89 24 -117 26
-274 27 -196 0 -320 -18 -510 -74 -403 -120 -772 -367 -992 -663 -230 -311
-272 -676 -102 -884 51 -62 109 -100 129 -83 23 19 19 41 -24 129 -91 188 -78
395 38 636 206 423 666 752 1183 845 139 25 354 27 466 5 113 -23 231 -83 307
-155 121 -117 161 -233 152 -445 -14 -324 -111 -619 -571 -1749 -58 -142 -106
-273 -106 -290 0 -42 23 -73 60 -81 55 -12 114 28 271 184 208 209 358 381
904 1046 486 590 599 721 774 895 216 215 411 358 605 442 121 53 191 68 319
68 60 0 117 5 128 11 52 27 43 113 -16 149 -34 21 -133 34 -185 24z"/>
<path d="M3578 7302 c-12 -15 -45 -71 -71 -123 -42 -81 -47 -98 -38 -121 13
-33 40 -42 121 -40 80 2 124 14 128 33 1 8 -18 30 -43 48 -69 49 -59 69 16 30
72 -36 88 -6 44 81 -35 68 -82 120 -110 120 -13 0 -33 -12 -47 -28z"/>
<path d="M3897 7255 c-61 -16 -117 -41 -117 -53 0 -4 9 -18 19 -32 19 -24 21
-24 78 -11 99 22 141 24 204 11 119 -25 211 -108 240 -213 50 -185 -105 -514
-331 -703 -140 -117 -293 -195 -354 -180 -31 8 -53 47 -78 141 l-18 70 5 -87
c8 -136 47 -298 111 -460 62 -156 156 -292 198 -286 34 5 30 31 -13 83 -70 84
-211 383 -198 418 3 8 22 18 42 21 48 9 185 80 260 135 75 55 186 168 253 257
65 86 144 238 172 329 41 136 37 294 -12 389 -31 62 -110 131 -175 156 -74 28
-206 35 -286 15z"/>
<path d="M3777 7109 c-19 -11 -47 -60 -47 -84 0 -25 38 -55 69 -55 34 0 81 48
81 84 0 53 -55 83 -103 55z"/>
<path d="M3936 7071 c-65 -14 -57 -54 18 -94 35 -18 38 -22 20 -25 -12 -2 -39
4 -59 12 -50 21 -65 20 -65 -4 0 -31 45 -113 80 -149 61 -61 111 -32 177 103
46 95 49 128 16 154 -18 13 -134 15 -187 3z"/>
<path d="M3335 7053 c-140 -29 -294 -103 -417 -202 -195 -155 -349 -363 -402
-540 -33 -111 -11 -281 44 -335 20 -20 20 -20 20 54 0 78 32 223 69 318 82
206 243 411 424 539 82 58 246 136 310 148 21 4 39 11 42 15 10 16 -22 17 -90
3z"/>
<path d="M3319 6951 c-222 -80 -429 -279 -556 -536 -43 -86 -88 -203 -82 -210
3 -2 45 62 94 142 196 319 356 486 574 595 88 44 77 48 -30 9z"/>
<path d="M3570 6903 c-91 -50 -209 -157 -269 -246 -85 -126 -162 -318 -216
-542 -41 -169 -165 -797 -196 -986 l-21 -137 -58 58 c-32 32 -85 76 -119 99
-125 85 -323 149 -422 138 -63 -8 -55 8 11 22 47 10 176 1 201 -15 12 -7 103
178 233 479 221 507 292 651 400 812 69 102 216 255 293 305 29 18 51 35 49
37 -2 2 -31 -7 -64 -20 -241 -98 -447 -339 -666 -776 -159 -316 -336 -608
-472 -776 -44 -54 -84 -142 -84 -183 0 -82 68 -151 195 -197 96 -35 160 -46
181 -30 28 20 12 35 -65 61 -93 31 -150 65 -194 113 -42 46 -53 77 -37 96 47
57 388 -83 550 -224 l35 -31 -67 31 c-37 17 -74 29 -82 27 -8 -2 -50 -74 -93
-160 l-79 -157 36 22 c30 19 49 22 145 22 104 0 115 -2 200 -37 111 -45 138
-52 171 -44 27 7 27 7 20 82 -5 52 -3 74 4 74 22 0 154 -85 204 -131 l50 -46
-55 -7 c-79 -10 -119 -37 -119 -80 0 -45 29 -80 93 -109 152 -72 398 -76 506
-9 126 78 150 196 49 248 -52 27 -162 29 -257 5 -95 -24 -131 -43 -131 -70 0
-29 17 -30 110 -4 102 28 224 31 258 7 12 -8 22 -26 22 -39 0 -35 -69 -89
-139 -109 -116 -33 -295 -12 -339 39 -22 26 -22 28 -5 47 10 11 29 24 42 29
20 8 22 14 17 40 -20 102 -223 258 -389 300 -47 11 -48 12 -41 43 9 45 9 44
66 34 61 -11 167 -57 217 -95 l34 -26 -7 49 c-48 338 -66 575 -66 852 0 237 8
332 40 493 59 292 162 466 375 636 22 18 38 32 35 32 -3 1 -43 -20 -90 -46z
m-640 -1907 c0 -29 -13 -76 -21 -76 -10 0 -12 50 -3 74 8 20 24 21 24 2z"/>
<path d="M3654 6901 c-74 -49 -118 -91 -171 -161 -242 -323 -284 -949 -122
-1798 17 -90 34 -161 36 -158 3 2 0 28 -6 56 -9 43 -8 59 9 110 11 33 20 77
20 99 0 84 72 280 91 250 13 -21 11 -6 -11 75 -63 237 -100 522 -98 756 l1
135 8 -85 c4 -47 13 -134 19 -195 6 -60 21 -164 35 -229 25 -119 41 -165 33
-94 -2 20 -1 35 3 32 4 -2 10 7 13 21 6 24 58 60 70 48 11 -11 6 11 -18 87
-95 294 -112 579 -47 790 27 87 85 182 149 247 29 29 51 53 49 53 -2 0 -30
-18 -63 -39z"/>
<path d="M3701 6873 c-56 -58 -90 -119 -119 -214 -27 -85 -33 -127 -22 -134
20 -12 99 34 129 75 60 83 98 237 73 300 l-10 25 -51 -52z"/>
<path d="M3772 6909 c17 -46 30 -146 25 -194 -11 -110 -92 -205 -186 -221 -61
-10 -71 -15 -71 -34 0 -41 95 -38 179 5 54 27 106 82 129 134 8 21 15 66 15
106 0 58 -5 80 -31 131 -29 57 -75 113 -60 73z"/>
<path d="M3414 6850 c-165 -101 -288 -271 -422 -585 -33 -77 -122 -300 -197
-495 -76 -195 -151 -381 -166 -412 -16 -32 -29 -60 -29 -63 0 -2 21 -16 48
-29 26 -13 72 -42 102 -65 30 -22 57 -37 61 -33 3 4 12 36 18 72 16 84 118
532 176 771 45 189 111 381 170 499 68 134 183 276 295 363 52 40 34 33 -56
-23z"/>
<path d="M6345 6765 c-22 -8 -41 -15 -43 -15 -1 0 -13 -25 -27 -56 -49 -112
-197 -259 -326 -325 -44 -22 -52 -49 -14 -49 54 0 242 85 369 167 176 113 245
247 145 282 -41 14 -55 13 -104 -4z"/>
<path d="M3914 6733 c29 -74 8 -177 -47 -240 l-32 -36 30 16 c69 35 105 101
105 190 0 66 -10 87 -43 87 -14 0 -17 -5 -13 -17z"/>
<path d="M8383 6490 c-47 -15 -78 -35 -123 -76 -101 -94 -149 -221 -150 -396
l0 -57 -112 -58 c-143 -74 -252 -172 -300 -271 -88 -179 -19 -363 158 -422 57
-19 82 -22 178 -18 96 4 122 9 190 37 44 17 105 49 136 70 l57 37 54 -48 c183
-161 433 -184 588 -53 68 58 91 156 46 200 -30 31 -56 32 -90 3 -28 -24 -34
-57 -21 -116 21 -95 -111 -130 -250 -68 -54 25 -189 144 -199 177 -4 13 10 38
48 86 63 77 122 184 162 291 29 79 52 102 101 102 31 0 60 21 47 33 -3 4 -78
7 -165 7 -134 0 -158 -2 -158 -15 0 -10 10 -15 30 -15 46 0 81 -39 74 -82 -9
-52 -87 -207 -139 -277 l-48 -65 -20 25 c-46 57 -167 328 -182 409 l-6 35 93
48 c214 110 315 219 317 343 1 49 -29 99 -78 128 -50 29 -159 32 -238 6z m170
-50 c36 -28 43 -75 22 -146 -14 -48 -28 -69 -83 -125 -79 -78 -208 -151 -219
-123 -9 23 5 164 22 222 43 144 179 234 258 172z m-399 -633 c35 -114 87 -225
152 -325 30 -47 53 -91 50 -98 -15 -40 -186 -114 -263 -114 -101 0 -184 53
-223 141 -29 69 -26 172 9 242 31 64 113 152 185 199 33 21 60 38 62 38 2 0
14 -38 28 -83z"/>
<path d="M5875 6175 c-159 -43 -304 -131 -430 -261 -86 -88 -132 -156 -173
-256 -22 -53 -26 -78 -26 -158 -1 -109 18 -162 75 -219 59 -59 110 -76 224
-75 88 0 111 4 188 33 48 18 122 56 165 83 91 60 242 178 242 190 0 4 4 8 9 8
4 0 2 -23 -5 -52 -29 -111 -4 -192 70 -227 121 -59 264 4 465 205 62 63 110
107 107 97 -30 -78 -38 -119 -34 -183 3 -65 6 -73 40 -107 133 -133 413 28
694 400 41 54 74 102 74 106 0 5 -6 14 -14 20 -18 15 -14 18 -151 -144 -154
-182 -337 -334 -421 -351 -44 -9 -68 17 -61 68 9 69 58 153 324 565 69 106
122 197 118 203 -9 15 -211 13 -225 -2 -6 -7 -54 -76 -106 -153 -163 -237
-321 -426 -451 -540 -225 -197 -339 -177 -232 42 29 58 344 541 400 612 11 13
19 32 19 43 0 17 -8 18 -112 16 l-113 -3 -152 -225 c-195 -288 -321 -418 -509
-525 -161 -92 -292 -113 -352 -57 -44 41 -57 100 -43 186 14 81 23 96 61 96
110 0 413 125 516 212 164 139 190 298 57 354 -41 18 -172 17 -238 -1z m173
-61 c68 -47 -30 -202 -200 -314 -91 -59 -208 -111 -282 -124 l-39 -7 28 48
c105 180 284 353 413 399 48 17 53 17 80 -2z"/>
<path d="M3531 5484 c0 -11 3 -14 6 -6 3 7 2 16 -1 19 -3 4 -6 -2 -5 -13z"/>
<path d="M11142 5294 c-33 -27 -41 -78 -29 -179 9 -71 8 -105 -5 -184 -19
-111 -15 -151 17 -181 69 -64 242 -12 439 131 5 4 6 19 2 34 -8 32 -17 32
-175 -9 -56 -15 -105 -25 -108 -22 -7 6 79 43 157 68 100 31 110 36 110 58 0
26 -24 40 -155 91 -134 53 -116 63 27 16 109 -37 128 -36 128 8 0 30 -55 71
-176 131 -111 55 -194 68 -232 38z"/>
<path d="M12170 5287 c-65 -22 -206 -103 -230 -132 -10 -12 -10 -21 0 -45 7
-16 14 -30 16 -30 2 0 47 14 98 31 139 45 150 30 15 -20 -110 -41 -117 -45
-123 -75 -8 -37 7 -51 62 -61 42 -8 185 -65 179 -72 -3 -2 -58 10 -123 26
l-119 31 -18 -22 c-17 -20 -17 -22 0 -41 10 -10 55 -41 100 -67 171 -102 299
-116 338 -39 19 36 19 63 -1 166 -12 67 -13 98 -5 153 22 140 13 182 -44 206
-46 19 -68 17 -145 -9z"/>
<path d="M11630 5147 c-50 -25 -60 -88 -30 -187 20 -68 31 -75 129 -78 56 -3
97 1 111 8 31 16 62 94 64 156 1 63 -19 90 -80 104 -57 14 -165 12 -194 -3z"/>
<path d="M6122 5081 c-125 -32 -217 -84 -307 -175 -141 -141 -196 -283 -198
-506 -1 -148 14 -215 75 -340 32 -66 58 -101 117 -160 136 -135 283 -192 496
-193 183 -1 311 41 407 135 l47 46 8 -36 c13 -59 6 -251 -10 -330 -35 -160
-151 -310 -296 -379 -98 -47 -211 -57 -283 -25 -51 22 -71 16 -66 -19 5 -41
68 -64 173 -63 158 1 294 58 420 176 90 84 153 183 191 298 27 84 28 91 34
410 4 179 10 333 14 343 12 27 60 47 111 47 45 0 45 0 45 35 l0 35 -305 0
-305 0 0 -34 0 -33 65 -6 c122 -12 155 -49 155 -180 0 -143 -44 -223 -153
-277 -226 -111 -494 -17 -602 213 -54 112 -67 195 -62 377 3 134 7 166 30 236
70 211 216 327 412 326 98 0 180 -25 258 -76 91 -61 153 -156 178 -274 l11
-53 51 3 52 3 3 233 2 232 -48 0 c-48 0 -49 0 -61 -40 -20 -67 -46 -71 -128
-22 -112 67 -178 85 -328 88 -101 3 -146 0 -203 -15z"/>
<path d="M10648 4954 c-21 -110 -51 -157 -121 -190 -29 -13 -62 -24 -74 -24
-20 0 -23 -5 -23 -40 l0 -40 84 0 85 0 3 -362 c3 -409 5 -418 79 -482 49 -41
97 -56 185 -56 150 0 242 87 260 245 l7 56 -39 -3 c-38 -3 -39 -4 -45 -49 -8
-56 -31 -102 -61 -123 -28 -20 -100 -21 -137 -1 -53 27 -56 48 -56 429 l0 350
130 0 130 1 3 43 3 42 -135 0 -136 0 0 145 0 145 -62 0 -63 0 -17 -86z"/>
<path d="M11640 4797 c0 -13 -16 -93 -35 -178 -52 -225 -50 -213 -34 -204 34
21 288 207 297 218 7 8 3 40 -11 99 l-22 88 -97 0 c-96 0 -98 -1 -98 -23z"/>
<path d="M7608 4751 c-67 -27 -117 -70 -158 -135 -19 -30 -38 -55 -42 -56 -5
0 -8 46 -8 101 l0 102 -37 -7 c-21 -3 -76 -8 -123 -11 -165 -11 -170 -12 -170
-46 0 -26 3 -29 30 -29 47 0 99 -26 110 -55 6 -16 10 -165 10 -365 0 -302 -2
-340 -17 -355 -22 -23 -57 -35 -99 -35 -32 0 -34 -2 -34 -35 l0 -35 265 0 265
0 0 35 c0 35 0 35 -45 35 -57 0 -109 21 -127 52 -10 17 -13 78 -13 243 0 198
2 227 22 290 31 97 72 156 133 189 28 15 60 26 73 24 20 -3 22 -7 19 -65 -3
-51 0 -65 17 -82 30 -30 68 -36 114 -20 57 20 82 58 82 124 0 57 -18 91 -67
128 -38 28 -140 33 -200 8z"/>
<path d="M8194 4760 c-109 -20 -201 -75 -234 -140 -30 -58 -26 -113 9 -152 26
-29 35 -33 81 -33 44 0 55 4 75 28 34 38 41 89 21 139 -19 49 -12 61 42 79 51
17 132 15 169 -4 68 -36 96 -102 91 -219 l-3 -72 -40 -9 c-239 -52 -360 -97
-431 -160 -143 -126 -122 -341 43 -426 111 -57 296 -15 394 89 l47 50 6 -40
c23 -142 261 -171 335 -40 26 47 28 107 4 112 -12 2 -24 -10 -38 -37 -17 -34
-25 -40 -57 -43 -30 -3 -40 1 -54 22 -14 22 -16 55 -16 219 1 296 -10 453 -36
504 -42 82 -142 132 -276 138 -45 2 -104 0 -132 -5z m256 -550 c0 -54 -5 -122
-11 -149 -44 -209 -327 -240 -363 -41 -15 84 39 173 132 219 38 20 199 68 230
70 9 1 12 -25 12 -99z"/>
<path d="M9872 4755 c-88 -20 -144 -49 -190 -99 -106 -115 -33 -263 107 -215
56 20 76 93 46 165 -8 20 -12 41 -9 46 25 40 169 51 234 18 60 -30 74 -67 75
-185 l0 -100 -100 -23 c-211 -49 -314 -91 -383 -156 -67 -62 -93 -151 -72
-249 16 -77 56 -129 127 -163 50 -25 69 -29 139 -28 71 0 90 4 146 32 38 19
84 52 111 81 l45 48 6 -31 c21 -111 150 -168 261 -117 49 22 73 48 91 98 21
59 18 83 -9 83 -17 0 -26 -9 -35 -34 -23 -62 -100 -69 -122 -10 -6 14 -10 157
-10 318 0 347 -5 375 -79 446 -31 30 -64 51 -101 63 -75 25 -200 30 -278 12z
m268 -558 c0 -71 -6 -132 -15 -163 -31 -106 -146 -174 -242 -144 -79 26 -117
84 -111 171 5 70 35 118 98 158 51 33 191 80 263 90 4 1 7 -50 7 -112z"/>
<path d="M8646 4734 c-14 -37 -6 -52 31 -59 75 -14 69 -2 353 -733 l63 -163
50 3 c46 3 50 5 62 38 24 63 245 623 282 713 37 90 71 131 119 143 19 5 24 13
24 40 l0 34 -165 0 -165 0 0 -35 c0 -32 2 -35 29 -35 44 0 78 -16 86 -40 4
-11 -1 -44 -11 -73 -20 -62 -182 -484 -196 -511 -8 -15 -31 35 -118 260 -59
153 -110 289 -114 301 -10 32 24 63 69 63 33 0 35 2 35 35 l0 35 -214 0 c-186
0 -215 -2 -220 -16z"/>
<path d="M4170 4712 c0 -43 283 -354 470 -517 365 -317 826 -559 1315 -689 94
-25 188 -47 210 -50 22 -4 -7 7 -65 23 -502 139 -975 390 -1410 750 -98 81
-322 303 -418 414 -75 85 -102 104 -102 69z"/>
<path d="M2550 4703 c-62 -23 -82 -107 -36 -156 36 -38 84 -59 151 -64 64 -6
128 7 160 31 34 25 5 40 -75 37 -78 -3 -151 23 -171 61 -17 32 4 43 80 42 56
-1 86 -9 167 -44 108 -46 182 -59 238 -40 32 10 65 45 53 56 -2 2 -21 -3 -42
-12 -51 -21 -94 -14 -203 35 -48 22 -105 44 -127 50 -41 11 -168 14 -195 4z"/>
<path d="M11711 4477 l-164 -112 -19 -79 c-10 -44 -17 -84 -15 -89 1 -5 54 33
117 84 64 52 152 123 197 159 45 36 82 73 83 82 0 23 -18 68 -27 68 -5 -1 -82
-51 -172 -113z"/>
<path d="M3955 4570 c-8 -13 -3 -20 69 -110 94 -116 289 -313 416 -419 538
-451 1222 -746 1915 -825 125 -14 146 -11 165 24 9 17 6 20 -22 24 -18 3 -91
15 -163 27 -612 98 -1289 385 -1783 756 -169 126 -338 279 -458 414 -101 113
-125 132 -139 109z"/>
<path d="M11710 4309 c-107 -83 -198 -154 -202 -157 -4 -4 -17 -54 -28 -111
-11 -56 -23 -114 -27 -129 -5 -20 34 9 173 129 98 85 214 183 257 218 51 43
76 69 73 80 -3 9 -7 32 -11 51 -11 57 -16 70 -28 70 -7 0 -100 -68 -207 -151z"/>
<path d="M11738 4084 c-122 -96 -241 -190 -263 -208 -39 -32 -41 -37 -58 -135
-11 -56 -17 -104 -15 -106 2 -2 65 44 140 103 75 59 211 165 303 236 142 109
166 131 161 150 -3 11 -11 47 -17 79 -6 31 -15 57 -19 57 -5 0 -109 -79 -232
-176z"/>
<path d="M11825 3899 c-99 -77 -231 -181 -293 -231 l-114 -91 90 -91 c121
-123 132 -147 88 -191 -21 -21 -33 -25 -86 -23 -74 2 -102 -19 -102 -75 0 -45
7 -56 48 -73 108 -45 165 -4 483 344 132 146 175 199 173 215 -5 27 -71 316
-78 340 -3 9 -11 17 -17 17 -7 -1 -93 -64 -192 -141z"/>
<path d="M10230 3613 c-431 -22 -696 -57 -1610 -212 -712 -121 -1042 -158
-1503 -168 l-289 -6 -15 -24 c-9 -13 -13 -26 -10 -29 25 -25 679 -43 947 -25
330 22 574 55 1065 146 986 182 1409 235 1876 235 316 0 511 -29 697 -104 70
-29 84 -31 89 -19 19 50 -240 140 -512 178 -211 29 -501 40 -735 28z"/>
<path d="M6218 3443 c7 -3 16 -2 19 1 4 3 -2 6 -13 5 -11 0 -14 -3 -6 -6z"/>
<path d="M6268 3433 c7 -3 16 -2 19 1 4 3 -2 6 -13 5 -11 0 -14 -3 -6 -6z"/>
</g>
</svg>
